<?xml version="1.0" encoding="UTF-8" standalone="no"?>
<!DOCTYPE svg PUBLIC "-//W3C//DTD SVG 1.1//EN" "http://www.w3.org/Graphics/SVG/1.1/DTD/svg11.dtd">
<!-- Created with Vectornator (http://vectornator.io/) -->
<svg height="100%" stroke-miterlimit="10" style="fill-rule:nonzero;clip-rule:evenodd;stroke-linecap:round;stroke-linejoin:round;" version="1.1" viewBox="0 0 464.682 464.699" width="100%" xml:space="preserve" xmlns="http://www.w3.org/2000/svg" xmlns:vectornator="http://vectornator.io" xmlns:xlink="http://www.w3.org/1999/xlink">
<defs/>
<g id="Layer-3" vectornator:layerName="Layer 3">
<path d="M464.452 464.482L464.452 24.3318L34.444 464.482L464.452 464.482Z" fill="#7fba00" fill-rule="nonzero" opacity="0.990498" stroke="none" vectornator:layerName="Curve 3"/>
<path d="M0 0.0287109L0 428.119L442.018 0.0287109L0 0.0287109Z" fill="#f25022" fill-rule="nonzero" opacity="0.990498" stroke="none" vectornator:layerName="Curve 4"/>
<path d="M285.896 207.746L34.444 464.482L242.666 464.482C242.666 464.482 209.359 453.93 228.459 420.641C247.558 387.353 307.888 374.877 322.554 322.161C337.219 269.443 285.896 207.746 285.896 207.746Z" fill="#ffb900" fill-rule="nonzero" opacity="0.990498" stroke="none" vectornator:layerName="Curve 1"/>
<path d="M254.188 180.728L0 428.119L0 226.032C0 226.032 10.6654 257.056 47.3292 234.878C83.9946 212.7 88.4886 157.469 141.108 142.462C193.729 127.455 254.188 180.728 254.188 180.728Z" fill="#00a4ef" fill-rule="nonzero" opacity="0.990498" stroke="none" vectornator:layerName="Curve 2"/>
<path d="M439.937 0L464.682 0L464.452 24.3318L37.4496 464.482L0 464.482L0 428.119L430.318 9.36127L439.937 0Z" fill="#ffffff" fill-rule="nonzero" opacity="0.990498" stroke="none" vectornator:layerName="Curve 5"/>
</g>
<g id="Layer-4-copy" vectornator:layerName="Layer 4 copy">
<path d="M458.26 0L0 457.675L0 464.482L6.9012 464.482L464.682 6.42218L464.682 0L458.26 0Z" fill="#000002" fill-rule="nonzero" opacity="0.990595" stroke="none" vectornator:layerName="Curve 4"/>
<path d="M437.87 0.0287109L0 424.429L0 431.315L445.204 0.0287109L437.87 0.0287109Z" fill="#000002" fill-rule="nonzero" opacity="1" stroke="none" vectornator:layerName="Curve 3"/>
<path d="M464.452 19.9783L32.9949 464.482L39.7163 464.482L464.452 28.5477L464.452 19.9783Z" fill="#000002" fill-rule="nonzero" opacity="1" stroke="none" vectornator:layerName="Curve 2"/>
</g>
<g id="Layer-5" vectornator:layerName="Layer 5">
<path d="M163.359 128.963C157.306 129.099 151.263 130.213 145.368 131.513C134.078 134.003 123.165 138.065 113.162 143.886C104.44 148.961 96.4642 155.278 89.5509 162.632C83.2103 169.379 77.6646 176.902 72.7399 184.732C68.5103 191.461 64.6993 198.438 60.6511 205.274C56.701 211.946 52.476 218.504 47.24 224.258C44.1982 227.601 40.969 230.701 36.8996 232.756C33.5495 234.449 29.8473 235.372 26.0846 235.26C23.0579 235.17 20.0176 234.37 17.4426 232.756C14.0124 230.608 10.753 227.155 9.6514 223.172C8.74021 219.876 8.9699 216.13 9.93549 212.876C12.0843 205.637 19.2363 199.252 27.1711 201.261C28.7215 201.652 30.1389 202.321 31.4687 203.196C30.29 202.045 29.0011 201.067 27.502 200.363C18.5699 196.168 8.76892 202.737 4.3157 210.374C-1.04719 219.572-1.29501 231.992 6.34662 240.029C9.8146 243.679 14.7378 246.09 19.5688 247.302C24.9709 248.656 30.6769 248.578 36.0957 247.349C46.1929 245.058 54.4767 238.958 62.0685 232.191C70.5019 224.672 77.6872 215.962 84.3089 206.832C91.3355 197.147 97.9224 187.034 106.173 178.31C111.587 172.587 117.793 167.713 124.637 163.814C131.851 159.704 139.721 156.805 147.775 154.841C156.032 152.828 164.618 151.524 173.134 151.63C200.238 151.965 226.91 164.024 247.603 181.001C249.771 183.043 253.212 182.934 255.254 180.765C257.294 178.599 257.185 175.158 255.016 173.116C238.626 155.521 218.174 141.762 195.234 134.299C185.003 130.972 174.163 128.72 163.359 128.963Z" fill="#000002" fill-rule="nonzero" opacity="1" stroke="none" vectornator:layerName="path"/>
<path d="M287.552 208.343C286.174 208.304 284.811 208.786 283.727 209.807C281.563 211.852 281.447 215.246 283.492 217.41C300.499 238.08 312.585 264.775 312.958 291.88C313.088 301.261 311.562 310.752 309.134 319.787C307.208 326.946 304.534 333.923 300.869 340.376C296.98 347.225 292.04 353.418 286.325 358.84C277.613 367.104 267.525 373.71 257.85 380.751C248.73 387.386 240.046 394.595 232.539 403.039C225.783 410.64 219.657 418.912 217.381 429.012C216.16 434.433 216.113 440.138 217.476 445.539C218.694 450.369 221.141 455.345 224.794 458.808C232.843 466.439 245.259 466.167 254.45 460.792C262.081 456.328 268.621 446.484 264.414 437.559C263.708 436.061 262.685 434.816 261.534 433.639C262.41 434.966 263.122 436.34 263.516 437.888C265.537 445.822 259.137 453.013 251.901 455.172C248.649 456.143 244.901 456.362 241.605 455.456C237.412 454.302 233.782 450.718 231.69 447.003C230.168 444.305 229.48 441.208 229.517 438.126C229.557 434.677 230.475 431.28 232.019 428.208C234.298 423.683 237.876 420.128 241.654 416.828C247.13 412.044 253.218 408.115 259.456 404.408C266.286 400.351 273.275 396.513 279.996 392.273C287.821 387.338 295.311 381.813 302.049 375.462C309.8 368.157 316.555 359.632 321.694 350.293C327.518 339.711 331.413 328.32 333.736 316.482C334.695 311.592 335.519 306.599 335.625 301.607C335.869 290.068 333.293 278.46 329.533 267.607C321.878 245.518 308.411 225.864 291.33 209.996C290.308 208.914 288.932 208.382 287.552 208.343Z" fill="#000002" fill-rule="nonzero" opacity="1" stroke="none" vectornator:layerName="path"/>
</g>
</svg>
