<svg preserveAspectRatio="none" width="100%" height="100%" overflow="visible" style="display: block;" viewBox="0 0 18 18" fill="none" xmlns="http://www.w3.org/2000/svg">
<g id="ic_fluent_ticket_diagonal_24_filled 1">
<path id="Vector" d="M11.6931 1.89758C11.0341 1.23857 9.96563 1.23857 9.3066 1.89758L1.89758 9.3066C1.23857 9.96563 1.23857 11.0341 1.89758 11.6931L2.77623 12.5717C3.15925 12.9548 3.69691 12.8862 4.02178 12.6931C4.16128 12.6101 4.32405 12.5624 4.49969 12.5624C5.01746 12.5624 5.43719 12.9821 5.43719 13.4999C5.43719 13.6755 5.38942 13.8383 5.3065 13.9778C5.11339 14.3027 5.04482 14.8403 5.42784 15.2234L6.30659 16.1021C6.9656 16.7611 8.03408 16.7611 8.6931 16.1021L16.1021 8.6931C16.7611 8.03408 16.7611 6.9656 16.1021 6.30659L15.2234 5.42789C14.8403 5.04482 14.3026 5.11346 13.9777 5.30662C13.8382 5.38958 13.6753 5.43737 13.4997 5.43737C12.9819 5.43737 12.5622 5.01764 12.5622 4.49987C12.5622 4.32419 12.61 4.16138 12.6929 4.02185C12.8861 3.69698 12.9547 3.15925 12.5716 2.77619L11.6931 1.89758Z" fill="var(--fill-0, white)"/>
</g>
</svg>
